#Comment line ignore any data following # character 
#Hierarchical Translation and Rotation (.htr) file 
[Header]	
#Header keywords are followed by a single value 
FileType HTR		#Single word string
DataType HTRS		#Translation followed by rotation and scale data
FileVersion 1		#integer
NumSegments 64		#integer
NumFrames 3		#integer
DataFrameRate 30		#integer, data frame rate in this file
EulerRotationOrder ZYX
CalibrationUnits mm
RotationUnits Degrees
GlobalAxisofGravity Y
BoneLengthAxis Y
ScaleFactor 1.00
[SegmentNames&Hierarchy]
#CHILD	PARENT
Pinger_Root GLOBAL
Pelvis Pinger_Root
L_Hip Pelvis
R_Hip Pelvis
Rear_Leg01 Pelvis
Spine1 Pelvis
L_Leg01 L_Hip
L_Leg02 L_Leg01
L_Leg03 L_Leg02
L_Foot L_Leg03
L_Toe1_01 L_Foot
L_Toe2_01 L_Foot
L_Toe3_01 L_Foot
planeAlignerLeft L_Foot
L_Toe1_02 L_Toe1_01
L_Toe1_03 L_Toe1_02
L_Toe2_02 L_Toe2_01
L_Toe2_03 L_Toe2_02
L_Toe3_02 L_Toe3_01
L_Toe3_03 L_Toe3_02
planeLockWeightLeft planeAlignerLeft
R_Leg01 R_Hip
R_Leg02 R_Leg01
R_Leg03 R_Leg02
R_Foot R_Leg03
planeAlignerRight R_Foot
R_Toe1_01 R_Foot
R_Toe2_01 R_Foot
R_Toe3_01 R_Foot
planeLockWeightRight planeAlignerRight
R_Toe1_02 R_Toe1_01
R_Toe1_03 R_Toe1_02
R_Toe2_02 R_Toe2_01
R_Toe2_03 R_Toe2_02
R_Toe3_02 R_Toe3_01
R_Toe3_03 R_Toe3_02
Rear_Leg02 Rear_Leg01
Rear_Leg03 Rear_Leg02
Rear_Leg04 Rear_Leg03
Rear_Foot Rear_Leg04
planeAlignerCenter Rear_Foot
Rear_Toe1_01 Rear_Foot
Rear_Toe2_01 Rear_Foot
Rear_Toe3_01 Rear_Foot
planeLockWeightCenter planeAlignerCenter
Rear_Toe1_02 Rear_Toe1_01
Rear_Toe1_03 Rear_Toe1_02
Rear_Toe2_02 Rear_Toe2_01
Rear_Toe2_03 Rear_Toe2_02
Rear_Toe3_02 Rear_Toe3_01
Rear_Toe3_03 Rear_Toe3_02
Back_Bone Spine1
Head Spine1
Motor_Bone Back_Bone
Ping_Mechanism Back_Bone
BN_LookIK Head
bottomMouth Head
L_Mouth01 Head
L_mouthFront Head
mouthGun Head
R_Mouth01 Head
R_mouthFront Head
TopMouth Head
weapon_bone Head
[BasePosition]
#SegmentName Tx, Ty, Tz, Rx, Ry, Rz, BoneLength
Pinger_Root 0.000000 0.000000 0.000000 -90.000000 0.000000 0.000000 10.000000 
Pelvis 0.000000 0.000000 0.000000 0.000000 0.000000 0.000000 10.000000 
L_Hip 0.000000 0.000000 0.000000 0.000000 0.000000 0.000000 10.000000 
R_Hip 0.000000 0.000000 0.000000 0.000000 0.000000 0.000000 10.000000 
Rear_Leg01 0.000000 0.000000 0.000000 0.000000 0.000000 0.000000 10.000000 
Spine1 0.000000 0.000000 0.000000 0.000000 0.000000 0.000000 10.000000 
L_Leg01 0.000000 0.000000 0.000000 0.000000 0.000000 0.000000 10.000000 
L_Leg02 0.000000 0.000000 0.000000 0.000000 0.000000 0.000000 10.000000 
L_Leg03 0.000000 0.000000 0.000000 0.000000 0.000000 0.000000 10.000000 
L_Foot 0.000000 0.000000 0.000000 0.000000 0.000000 0.000000 10.000000 
L_Toe1_01 0.000000 0.000000 0.000000 0.000000 0.000000 0.000000 10.000000 
L_Toe2_01 0.000000 0.000000 0.000000 0.000000 0.000000 0.000000 10.000000 
L_Toe3_01 0.000000 0.000000 0.000000 0.000000 0.000000 0.000000 10.000000 
planeAlignerLeft 0.000000 0.000000 0.000000 0.000000 0.000000 0.000000 10.000000 
L_Toe1_02 0.000000 0.000000 0.000000 0.000000 0.000000 0.000000 10.000000 
L_Toe1_03 0.000000 0.000000 0.000000 0.000000 0.000000 0.000000 10.000000 
L_Toe2_02 0.000000 0.000000 0.000000 0.000000 0.000000 0.000000 10.000000 
L_Toe2_03 0.000000 0.000000 0.000000 0.000000 0.000000 0.000000 10.000000 
L_Toe3_02 0.000000 0.000000 0.000000 0.000000 0.000000 0.000000 10.000000 
L_Toe3_03 0.000000 0.000000 0.000000 0.000000 0.000000 0.000000 10.000000 
planeLockWeightLeft 0.000000 0.000000 0.000000 0.000000 0.000000 0.000000 10.000000 
R_Leg01 0.000000 0.000000 0.000000 0.000000 0.000000 0.000000 10.000000 
R_Leg02 0.000000 0.000000 0.000000 0.000000 0.000000 0.000000 10.000000 
R_Leg03 0.000000 0.000000 0.000000 0.000000 0.000000 0.000000 10.000000 
R_Foot 0.000000 0.000000 0.000000 0.000000 0.000000 0.000000 10.000000 
planeAlignerRight 0.000000 0.000000 0.000000 0.000000 0.000000 0.000000 10.000000 
R_Toe1_01 0.000000 0.000000 0.000000 0.000000 0.000000 0.000000 10.000000 
R_Toe2_01 0.000000 0.000000 0.000000 0.000000 0.000000 0.000000 10.000000 
R_Toe3_01 0.000000 0.000000 0.000000 0.000000 0.000000 0.000000 10.000000 
planeLockWeightRight 0.000000 0.000000 0.000000 0.000000 0.000000 0.000000 10.000000 
R_Toe1_02 0.000000 0.000000 0.000000 0.000000 0.000000 0.000000 10.000000 
R_Toe1_03 0.000000 0.000000 0.000000 0.000000 0.000000 0.000000 10.000000 
R_Toe2_02 0.000000 0.000000 0.000000 0.000000 0.000000 0.000000 10.000000 
R_Toe2_03 0.000000 0.000000 0.000000 0.000000 0.000000 0.000000 10.000000 
R_Toe3_02 0.000000 0.000000 0.000000 0.000000 0.000000 0.000000 10.000000 
R_Toe3_03 0.000000 0.000000 0.000000 0.000000 0.000000 0.000000 10.000000 
Rear_Leg02 0.000000 0.000000 0.000000 0.000000 0.000000 0.000000 10.000000 
Rear_Leg03 0.000000 0.000000 0.000000 0.000000 0.000000 0.000000 10.000000 
Rear_Leg04 0.000000 0.000000 0.000000 0.000000 0.000000 0.000000 10.000000 
Rear_Foot 0.000000 0.000000 0.000000 0.000000 0.000000 0.000000 10.000000 
planeAlignerCenter 0.000000 0.000000 0.000000 0.000000 0.000000 0.000000 10.000000 
Rear_Toe1_01 0.000000 0.000000 0.000000 0.000000 0.000000 0.000000 10.000000 
Rear_Toe2_01 0.000000 0.000000 0.000000 0.000000 0.000000 0.000000 10.000000 
Rear_Toe3_01 0.000000 0.000000 0.000000 0.000000 0.000000 0.000000 10.000000 
planeLockWeightCenter 0.000000 0.000000 0.000000 0.000000 0.000000 0.000000 10.000000 
Rear_Toe1_02 0.000000 0.000000 0.000000 0.000000 0.000000 0.000000 10.000000 
Rear_Toe1_03 0.000000 0.000000 0.000000 0.000000 0.000000 0.000000 10.000000 
Rear_Toe2_02 0.000000 0.000000 0.000000 0.000000 0.000000 0.000000 10.000000 
Rear_Toe2_03 0.000000 0.000000 0.000000 0.000000 0.000000 0.000000 10.000000 
Rear_Toe3_02 0.000000 0.000000 0.000000 0.000000 0.000000 0.000000 10.000000 
Rear_Toe3_03 0.000000 0.000000 0.000000 0.000000 0.000000 0.000000 10.000000 
Back_Bone 0.000000 0.000000 0.000000 0.000000 0.000000 0.000000 10.000000 
Head 0.000000 0.000000 0.000000 0.000000 0.000000 0.000000 10.000000 
Motor_Bone 0.000000 0.000000 0.000000 0.000000 0.000000 0.000000 10.000000 
Ping_Mechanism 0.000000 0.000000 0.000000 0.000000 0.000000 0.000000 10.000000 
BN_LookIK 0.000000 0.000000 0.000000 0.000000 0.000000 0.000000 10.000000 
bottomMouth 0.000000 0.000000 0.000000 0.000000 0.000000 0.000000 10.000000 
L_Mouth01 0.000000 0.000000 0.000000 0.000000 0.000000 0.000000 10.000000 
L_mouthFront 0.000000 0.000000 0.000000 0.000000 0.000000 0.000000 10.000000 
mouthGun 0.000000 0.000000 0.000000 0.000000 0.000000 0.000000 10.000000 
R_Mouth01 0.000000 0.000000 0.000000 0.000000 0.000000 0.000000 10.000000 
R_mouthFront 0.000000 0.000000 0.000000 0.000000 0.000000 0.000000 10.000000 
TopMouth 0.000000 0.000000 0.000000 0.000000 0.000000 0.000000 10.000000 
weapon_bone 0.000000 0.000000 0.000000 0.000000 0.000000 0.000000 10.000000 
#Beginning of Data. Separated by tabs
#Fr	Tx	Ty	Tz	Rx	Ry	Rz	SF
[Pinger_Root]
25 -3111.110596 0.000000 0.000000 -0.000075 -0.000000 -0.000020 3111.110596
26 -3240.740234 0.000000 0.000000 -0.000075 -0.000000 -0.000020 3240.740234
27 -3370.369629 0.000000 0.000000 -0.000075 -0.000000 -0.000020 3370.369629
[Pelvis]
25 -454.512817 -136.624008 4995.763184 39.175522 -71.901276 22.968073 5018.256836
26 -473.523315 -79.547043 5013.275879 42.139885 -72.731613 21.461338 5036.217773
27 -482.567474 -19.649454 5034.515137 45.322155 -73.535950 19.733120 5057.627930
[L_Hip]
25 5.766392 125.831482 872.656799 -178.250168 -81.786369 87.376007 881.701050
26 5.766392 125.831482 872.656799 -178.250168 -81.786369 87.376007 881.701050
27 5.766392 125.831482 872.656799 -178.250168 -81.786369 87.376007 881.701050
[R_Hip]
25 5.765438 125.836372 -872.654907 -1.748770 81.786041 87.376961 881.699829
26 5.765438 125.836372 -872.654907 -1.748770 81.786041 87.376961 881.699829
27 5.765438 125.836372 -872.654907 -1.748770 81.786041 87.376961 881.699829
[Rear_Leg01]
25 -192.298416 -925.602966 -0.001907 -156.660782 26.000774 -151.070923 945.367432
26 -192.298416 -925.602966 -0.001907 -155.973129 24.983990 -151.630295 945.367432
27 -192.298416 -925.602966 -0.001907 -155.649597 24.339710 -152.756561 945.367432
[Spine1]
25 290.604584 5.007505 0.000477 -54.270363 8.958143 28.004295 290.647736
26 290.604584 5.007505 0.000477 -55.516533 10.681360 27.722939 290.647736
27 290.604584 5.007505 0.000477 -56.778564 12.397508 27.401674 290.647736
[L_Leg01]
25 761.932007 -0.002384 -0.069261 76.199295 27.461462 -111.866188 761.932068
26 761.932007 -0.002384 -0.069261 78.042679 30.034521 -111.061882 761.932068
27 761.932007 -0.002384 -0.069261 80.714439 31.880550 -110.307327 761.932068
[L_Leg02]
25 1441.140503 -0.000954 -0.000715 -1.239532 0.894711 -65.363403 1441.140503
26 1441.140503 -0.000954 -0.000715 -1.223988 0.909130 -62.990677 1441.140503
27 1441.140503 -0.000954 -0.000715 -1.207874 0.922880 -60.619972 1441.140503
[L_Leg03]
25 1686.963989 -0.000715 -0.000954 0.133843 -0.006375 74.398659 1686.963989
26 1686.963989 -0.000715 -0.000954 0.140836 -0.003331 72.694534 1686.963989
27 1686.963989 -0.000715 -0.000954 0.147769 0.000846 70.275436 1686.963989
[L_Foot]
25 3041.570068 -30.715107 11.297464 0.048783 6.145884 99.222168 3041.746094
26 3041.570068 -30.715107 11.297464 0.715276 6.628181 100.640617 3041.746094
27 3041.570068 -30.715107 11.297464 1.832496 7.959162 102.420723 3041.746094
[L_Toe1_01]
25 -188.216690 -224.732346 -21.137953 88.794029 -1.556119 -145.597549 293.899567
26 -188.216690 -224.732346 -21.137953 88.789925 -1.556525 -145.573669 293.899567
27 -188.216690 -224.732346 -21.137953 88.785812 -1.556932 -145.549789 293.899567
[L_Toe2_01]
25 200.746536 -219.926590 148.838394 -74.718552 -10.402433 -59.463245 332.896027
26 200.746536 -219.926590 148.838394 -74.731483 -10.370628 -59.439034 332.896027
27 200.746536 -219.926590 148.838394 -74.744377 -10.338811 -59.414825 332.896027
[L_Toe3_01]
25 188.832520 -219.859131 -191.078659 -109.701874 12.799804 -61.275211 347.140900
26 188.832520 -219.859131 -191.078659 -109.766914 12.705476 -61.562115 347.140900
27 188.832520 -219.859131 -191.078659 -109.700829 12.654924 -61.389748 347.140900
[planeAlignerLeft]
25 -79.781265 -809.790894 -0.021973 0.000000 -90.000000 -90.001900 813.711487
26 -79.017677 -810.536621 -0.022430 0.000000 -90.000000 -90.001900 814.379150
27 -78.254097 -811.282410 -0.022888 0.000000 -90.000000 -90.001900 815.047729
[L_Toe1_02]
25 413.761139 0.000477 0.000000 0.001386 -25.777327 0.001386 413.761139
26 413.761139 0.000477 0.000000 0.001386 -25.745440 0.001386 413.761139
27 413.761139 0.000477 0.000000 0.001386 -25.713547 0.001386 413.761139
[L_Toe1_03]
25 464.317322 0.000358 -0.000089 0.003152 46.280045 0.003152 464.317322
26 464.317322 0.000358 -0.000089 0.003124 45.860855 0.003124 464.317322
27 464.317322 0.000358 -0.000089 0.003163 46.441433 0.003163 464.317322
[L_Toe2_02]
25 342.235809 -0.000477 0.000238 0.001184 -74.598457 0.001184 342.235809
26 342.235809 -0.000477 0.000238 0.001184 -74.454460 0.001184 342.235809
27 342.235809 -0.000477 0.000238 0.001185 -74.310425 0.001185 342.235809
[L_Toe2_03]
25 420.210846 -0.000715 0.000000 -179.953018 88.648537 -179.949524 420.210846
26 420.210846 -0.000715 0.000000 -179.940140 88.931007 -179.936646 420.210846
27 420.210846 -0.000715 0.000000 -179.918060 89.213417 -179.914566 420.210846
[L_Toe3_02]
25 329.270111 0.000954 0.000000 0.001180 -78.414505 0.001180 329.270111
26 329.270111 0.000954 0.000000 0.001180 -78.259567 0.001180 329.270111
27 329.270111 0.000954 0.000000 0.001180 -78.104591 0.001180 329.270111
[L_Toe3_03]
25 439.137451 -0.001907 0.000954 -179.985046 86.056877 -179.981552 439.137451
26 439.137451 -0.001907 0.000954 -179.983917 86.308167 -179.980408 439.137451
27 439.137451 -0.001907 0.000954 -179.982605 86.559288 -179.979111 439.137451
[planeLockWeightLeft]
25 999.998901 0.097967 0.076188 -0.011826 -0.004376 0.005620 999.998962
26 999.998901 0.097964 0.076179 -0.011826 -0.004376 0.005620 999.998962
27 999.998901 0.097961 0.076170 -0.011826 -0.004376 0.005620 999.998962
[R_Leg01]
25 761.455627 -0.001907 -0.000358 112.027657 -45.293877 66.750885 761.455688
26 761.455627 -0.001907 -0.000358 124.116234 -40.128056 64.209808 761.455688
27 761.455627 -0.001907 -0.000358 128.469666 -35.393829 64.157570 761.455688
[R_Leg02]
25 1441.140625 0.000000 -0.000238 -0.196241 0.005115 -118.706955 1441.140625
26 1441.140625 0.000000 -0.000238 0.185937 -0.033606 -101.020935 1441.140625
27 1441.140625 0.000000 -0.000238 0.191011 -0.023878 -98.106186 1441.140625
[R_Leg03]
25 1686.963989 0.000954 0.001431 0.018539 -0.007860 115.952774 1686.963989
26 1686.963989 0.000954 0.001431 -0.046015 0.010224 97.990555 1686.963989
27 1686.963989 0.000954 0.001431 -0.046050 0.010069 97.603271 1686.963989
[R_Foot]
25 3041.560059 -30.531288 -11.204481 -22.793182 -31.976912 53.812901 3041.734131
26 3041.560059 -30.531288 -11.204481 -15.074162 -26.384327 45.037975 3041.734131
27 3041.560059 -30.531288 -11.204481 -15.303015 -22.697321 46.256737 3041.734131
[planeAlignerRight]
25 -25.616318 -817.624878 -21.222725 0.000000 -89.960434 -90.005180 818.301331
26 171.340195 -838.363831 -51.683231 0.000000 -89.960434 -90.005180 857.252930
27 110.205734 -769.268738 -30.713009 0.000000 -89.960434 -90.005180 777.729370
[R_Toe1_01]
25 -188.383347 -224.864899 21.052242 90.696510 3.136165 -146.890610 294.101532
26 -188.383347 -224.864899 21.052242 90.120613 4.974637 -148.497162 294.101532
27 -188.383347 -224.864899 21.052242 90.453461 3.718644 -156.173859 294.101532
[R_Toe2_01]
25 200.637817 -220.002121 -148.787384 -106.792343 8.421080 -70.761078 332.857574
26 200.637817 -220.002121 -148.787384 -105.130470 8.421726 -61.353512 332.857574
27 200.637817 -220.002121 -148.787384 -103.940010 10.139219 -54.326832 332.857574
[R_Toe3_01]
25 188.606735 -220.092957 191.126343 -69.215981 -6.806442 -71.481270 347.192566
26 188.606735 -220.092957 191.126343 -72.371712 -4.652023 -62.826286 347.192566
27 188.606735 -220.092957 191.126343 -73.011337 -9.148182 -56.162514 347.192566
[planeLockWeightRight]
25 895.998779 -0.000305 0.076447 -0.011823 -0.004379 -0.000027 895.998779
26 999.999268 -0.000305 0.076332 -0.011823 -0.004379 -0.000027 999.999268
27 999.999695 -0.000295 0.076326 -0.011823 -0.004379 -0.000027 999.999695
[R_Toe1_02]
25 413.762085 0.000477 -0.000119 0.001429 -20.473446 0.001429 413.762085
26 413.762085 0.000477 -0.000119 0.001447 -18.350996 0.001447 413.762085
27 413.762085 0.000477 -0.000119 0.001419 -21.564932 0.001419 413.762085
[R_Toe1_03]
25 464.317810 0.000000 0.001088 -0.058641 88.842255 -0.055144 464.317810
26 464.317810 0.000000 0.001088 -179.990875 83.937317 -179.987381 464.317810
27 464.317810 0.000000 0.001088 -0.014083 84.657822 -0.010582 464.317810
[R_Toe2_02]
25 342.234741 -0.000954 0.000238 -0.002334 -78.684532 -0.002334 342.234741
26 342.234741 -0.000954 0.000238 0.001208 -62.504040 0.001208 342.234741
27 342.234741 -0.000954 0.000238 0.001207 -62.984753 0.001207 342.234741
[R_Toe2_03]
25 420.210846 0.000715 -0.000268 -179.994614 71.708900 -179.998169 420.210846
26 420.210846 0.000715 -0.000268 -0.004433 64.871803 -0.000851 420.210846
27 420.210846 0.000715 -0.000268 -0.004522 65.729210 -0.000946 420.210846
[R_Toe3_02]
25 329.270355 -0.000477 -0.000954 0.001176 -82.662041 0.001176 329.270355
26 329.270355 -0.000477 -0.000954 0.001191 -70.652779 0.001191 329.270355
27 329.270355 -0.000477 -0.000954 0.001191 -70.349915 0.001191 329.270355
[R_Toe3_03]
25 439.137939 0.000238 0.001431 -179.998749 68.154129 -179.995178 439.137939
26 439.137939 0.000238 0.001431 0.008857 74.771706 0.008857 439.137939
27 439.137939 0.000238 0.001431 0.008509 74.144234 0.008509 439.137939
[Rear_Leg02]
25 1162.777710 -0.029802 0.005960 3.216959 -2.430809 -133.382034 1162.777710
26 1162.777710 -0.029802 0.005960 2.849891 -2.247718 -135.984482 1162.777710
27 1162.777710 -0.029802 0.005960 2.754094 -2.371209 -138.065186 1162.777710
[Rear_Leg03]
25 607.192505 -0.013351 -0.073195 0.010065 -0.005904 77.149673 607.192505
26 607.192505 -0.013351 -0.073195 0.010089 -0.005862 76.667336 607.192505
27 607.192505 -0.013351 -0.073195 0.010114 -0.005819 76.185005 607.192505
[Rear_Leg04]
25 995.874512 -0.020504 -0.011921 -0.043136 -0.017435 90.142082 995.874573
26 995.874512 -0.020504 -0.011921 -0.042945 -0.017899 88.904839 995.874573
27 995.874512 -0.020504 -0.011921 -0.042641 -0.018613 86.994278 995.874573
[Rear_Foot]
25 3096.176270 -0.067472 -0.041425 -13.360113 72.959976 144.624115 3096.176270
26 3096.176270 -0.067472 -0.041425 -12.895676 72.923744 148.365540 3096.176270
27 3096.176270 -0.067472 -0.041425 -12.441309 72.878693 152.097229 3096.176270
[planeAlignerCenter]
25 1.138153 26.186630 -828.367798 0.000009 0.000003 -179.999985 828.782410
26 1.138916 34.164246 -826.016968 0.000009 0.000003 -179.999985 826.723938
27 1.138268 40.797386 -817.842224 0.000009 0.000003 -179.999985 818.859924
[Rear_Toe1_01]
25 0.653352 83.966492 -371.173737 0.068982 29.035080 90.033836 380.553192
26 0.653352 83.966492 -371.173737 0.064507 28.944796 90.030647 380.553192
27 0.653352 83.966492 -371.173737 0.060043 28.854500 90.027451 380.553192
[Rear_Toe2_01]
25 178.200760 -294.826019 -362.060547 0.353371 54.255314 -71.180794 499.765686
26 178.200760 -294.826019 -362.060547 0.483136 54.130520 -70.960182 499.765686
27 178.200760 -294.826019 -362.060547 0.611686 54.005413 -70.740692 499.765686
[Rear_Toe3_01]
25 -153.359680 -308.780914 -362.060852 -0.538368 54.244331 -111.159401 499.952881
26 -153.359680 -308.780914 -362.060852 -0.681400 54.118168 -111.403709 499.952881
27 -153.359680 -308.780914 -362.060852 -0.823073 53.991619 -111.646721 499.952881
[planeLockWeightCenter]
25 999.999939 0.000247 0.076204 -0.011814 -0.004373 -0.000015 999.999939
26 999.999939 0.000235 0.076194 -0.011814 -0.004373 -0.000015 999.999939
27 999.999939 0.000223 0.076184 -0.011814 -0.004373 -0.000015 999.999939
[Rear_Toe1_02]
25 379.707825 0.194073 0.000477 -0.000767 -33.624729 0.000838 379.707855
26 379.707825 0.194073 0.000477 -0.000767 -33.624729 0.000838 379.707855
27 379.707825 0.194073 0.000477 -0.000767 -33.624729 0.000838 379.707855
[Rear_Toe1_03]
25 500.129700 0.165701 0.000119 0.007116 71.014847 0.007116 500.129761
26 500.129700 0.165701 0.000119 0.006670 69.731941 0.006670 500.129761
27 500.129700 0.165701 0.000119 -0.004936 69.028214 -0.001380 500.129761
[Rear_Toe2_02]
25 340.494507 0.000238 -0.000954 0.001182 -76.438652 0.001182 340.494507
26 340.494507 0.000238 -0.000954 0.001181 -77.355858 0.001181 340.494507
27 340.494507 0.000238 -0.000954 0.001180 -78.273476 0.001180 340.494507
[Rear_Toe2_03]
25 433.103577 0.000000 0.000238 0.014535 80.737579 0.014535 433.103546
26 433.103577 0.000000 0.000238 0.017574 82.340790 0.017574 433.103546
27 433.103577 0.000000 0.000238 0.022217 83.943886 0.022217 433.103546
[Rear_Toe3_02]
25 340.494141 -0.000358 -0.000477 0.001182 -76.356834 0.001182 340.494171
26 340.494141 -0.000358 -0.000477 0.001181 -77.298309 0.001181 340.494171
27 340.494141 -0.000358 -0.000477 0.001180 -78.239944 0.001180 340.494171
[Rear_Toe3_03]
25 433.103577 0.001431 -0.000238 0.014296 80.581902 0.014296 433.103546
26 433.103577 0.001431 -0.000238 0.003512 82.173157 0.005264 433.103546
27 433.103577 0.001431 -0.000238 -0.012318 83.764420 -0.008816 433.103546
[Back_Bone]
25 1312.175781 -701.934692 0.000954 2.107728 -3.291730 -83.853790 1488.125488
26 1312.175781 -701.934692 0.000954 2.333966 -2.968246 -83.663704 1488.125488
27 1312.175781 -701.934692 0.000954 2.504240 -2.429769 -83.952141 1488.125488
[Head]
25 1406.159424 809.709290 0.001431 -7.342427 3.084680 3.928507 1622.625488
26 1406.159424 809.709290 0.001431 -6.903904 2.999175 3.746922 1622.625488
27 1406.159424 809.709290 0.001431 -6.552021 3.008004 3.335670 1622.625488
[Motor_Bone]
25 1158.364380 -417.834747 0.000477 -1.034489 -1.094876 -107.077385 1231.419434
26 1158.364380 -417.834747 0.000477 -2.188160 -1.022762 -107.007042 1231.419434
27 1158.364380 -417.834747 0.000477 -2.074372 -0.843160 -106.828514 1231.419434
[Ping_Mechanism]
25 1244.062744 -430.151337 85.873421 0.000103 -0.000053 82.120995 1319.127319
26 1240.677246 -429.646698 82.493965 0.000103 -0.000053 82.120995 1315.553711
27 1237.291626 -429.142059 79.114517 0.000103 -0.000053 82.120995 1311.987915
[BN_LookIK]
25 193.241119 1380.371704 -0.002861 0.000000 89.965736 -31.038179 1393.832153
26 193.241119 1380.371704 -0.002861 0.000000 89.965736 -31.038179 1393.832153
27 193.241119 1380.371704 -0.002861 0.000000 89.965736 -31.038179 1393.832153
[bottomMouth]
25 -435.092926 615.759399 -0.000954 -0.000022 0.000016 73.527184 753.966492
26 -435.092926 615.759399 -0.000954 -0.000022 0.000016 73.527184 753.966492
27 -435.092926 615.759399 -0.000954 -0.000022 0.000016 73.527184 753.966492
[L_Mouth01]
25 554.440979 7.658243 838.222046 150.204178 23.759130 109.605339 1005.027161
26 554.440979 7.658243 838.222046 150.204178 23.759130 109.605339 1005.027161
27 554.440979 7.658243 838.222046 150.204178 23.759130 109.605339 1005.027161
[L_mouthFront]
25 551.629089 934.514771 339.150421 0.000081 2.804060 79.119301 1136.941284
26 551.629089 934.514771 339.150421 0.000081 2.804060 79.119301 1136.941284
27 551.629089 934.514771 339.150421 0.000081 2.804060 79.119301 1136.941284
[mouthGun]
25 55.332661 1627.420898 0.000000 0.000023 0.000009 -11.038128 1628.361328
26 55.332661 1627.420898 0.000000 0.000023 0.000009 -11.038128 1628.361328
27 55.332661 1627.420898 0.000000 0.000023 0.000009 -11.038128 1628.361328
[R_Mouth01]
25 554.442383 7.659197 -838.223938 29.795891 -23.759109 109.605331 1005.029541
26 554.442383 7.659197 -838.223938 29.795891 -23.759109 109.605331 1005.029541
27 554.442383 7.659197 -838.223938 29.795891 -23.759109 109.605331 1005.029541
[R_mouthFront]
25 551.629089 934.514282 -339.151367 0.000029 -2.803930 79.119133 1136.941162
26 551.629089 934.514282 -339.151367 0.000029 -2.803930 79.119133 1136.941162
27 551.629089 934.514282 -339.151367 0.000029 -2.803930 79.119133 1136.941162
[TopMouth]
25 461.269867 -56.106091 -0.008583 -0.000059 -0.000268 92.025169 464.669525
26 461.269867 -56.106091 -0.008583 -0.000059 -0.000268 92.025169 464.669525
27 461.269867 -56.106091 -0.008583 -0.000059 -0.000268 92.025169 464.669525
[weapon_bone]
25 -987.239868 1448.372803 0.001431 0.000000 89.965736 -31.038221 1752.833740
26 -987.239868 1448.372803 0.001431 0.000000 89.965736 -31.038221 1752.833740
27 -987.239868 1448.372803 0.001431 0.000000 89.965736 -31.038221 1752.833740
